[center]
[URL=http://img7.imageshack.us/i/planetdinosaur.jpg/][IMG]http://img7.imageshack.us/img7/7870/planetdinosaur.jpg[/IMG][/URL]
-=-=-=-=-=-=-=-=-=-=-=-
[b]Planet Dinosaur 
Season 1 Episode 2 of 6
Feathered Dragons: [/b]
How feathered creatures that blur the boundaries between dinosaurs and birds are revolutionising 
scientists' understanding of life on Earth. Focusing on China, where most of these discoveries are made, 
the programme features animals such as the epidexipteryx, a predator the size of a pigeon and the most 
bird-like of any dinosaur, and the eight-metre-long gigantoraptor, revealing their feathers may have 
been developed for insulation, to intimidate or attract, or even for flight

Category Documentary
Executive Producer Andrew Cohen
Series Producer Nigel Paterson
Cast
Narrator John Hurt
 
-=-=-=-=-=-=-=-=-=-

[b]File info[/b]

Format                           : AVI
Format/Info                      : Audio Video Interleave
File size                        : 351 MiB
Duration                         : 28mn 39s
Overall bit rate                 : 1 711 Kbps
Writing application              : Lavf50.6.0
Writing library                  : VirtualDub build 32842/release

Video
ID                               : 0
Format                           : MPEG-4 Visual
Format profile                   : Simple@L1
Format settings, BVOP            : No
Format settings, QPel            : No
Format settings, GMC             : No warppoints
Format settings, Matrix          : Default (H.263)
Codec ID                         : XVID
Codec ID/Hint                    : XviD
Duration                         : 28mn 39s
Bit rate                         : 1 574 Kbps
Width                            : 720 pixels
Height                           : 420 pixels
Display aspect ratio             : 16:9
Frame rate                       : 25.000 fps
Color space                      : YUV
Chroma subsampling               : 4:2:0
Bit depth                        : 8 bits
Scan type                        : Progressive
Compression mode                 : Lossy
Bits/(Pixel*Frame)               : 0.208
Stream size                      : 322 MiB (92%)
Writing library                  : Lavc52.41.0

Audio
ID                               : 1
Format                           : MPEG Audio
Format version                   : Version 1
Format profile                   : Layer 3
Mode                             : Joint stereo
Mode extension                   : MS Stereo
Codec ID                         : 55
Codec ID/Hint                    : MP3
Duration                         : 28mn 32s
Bit rate mode                    : Constant
Bit rate                         : 128 Kbps
Channel(s)                       : 2 channels
Sampling rate                    : 44.1 KHz
Compression mode                 : Lossy
Stream size                      : 26.1 MiB (7%)
Alignment                        : Split accross interleaves
Interleave, duration             : 40 ms (1.00 video frame)
Interleave, preload duration     : 500 ms

spoken language: Engish

Note: Not a perfect recording I'm afraid, a couple of minor faults but nothing worth scrapping it over.
I'm still eperimenting with my new hardware and these thing happen :)
--------------------------------

[b]Screenshots[/b]

[URL=http://img21.imageshack.us/i/bbcplanetdinosaurs01e02.jpg/][IMG]http://img21.imageshack.us/img21/250/bbcplanetdinosaurs01e02.jpg[/IMG][/URL]

[b]Hash:[/b]
07E4D4687626CE5147F5C1B4C7570C075F1976FA

[/center]

